STARTFONT 2.1
FONT -Bitstream-Terminal-Bold-R-Narrow--50-360-100-100-C-180-ISO8859-1
SIZE 36 100 100
FONTBOUNDINGBOX 17 50 0 -10

STARTPROPERTIES 26
CHARSET_REGISTRY "ISO8859"
CHARSET_ENCODING "1"
CAP_HEIGHT 30
X_HEIGHT 24
AVERAGE_WIDTH 180
FIGURE_WIDTH 18
SPACING "C"
FONTNAME_REGISTRY ""
FAMILY_NAME "Terminal"
FOUNDRY "Bitstream"
WEIGHT_NAME "Bold"
SETWIDTH_NAME "Narrow"
SLANT "R"
ADD_STYLE_NAME ""
PIXEL_SIZE 50
POINT_SIZE 360
RESOLUTION_X 100
RESOLUTION_Y 100
CHARSET_COLLECTIONS "ASCII ISO8859-1"
FULL_NAME "Terminal Bold Narrow"
COPYRIGHT "Copyright (c) 1988 Bitstream, Inc.,  Copyright 1991 Digital Equipment Corp."
WEIGHT 10
QUAD_WIDTH 18
DEFAULT_CHAR 159
FONT_DESCENT 10
FONT_ASCENT 40
ENDPROPERTIES

CHARS 191

STARTCHAR space
ENCODING 32
SWIDTH 720 0
DWIDTH 18 0
BBX 1 1 0 0
BITMAP
00
ENDCHAR

STARTCHAR exclam
ENCODING 33
SWIDTH 720 0
DWIDTH 18 0
BBX 7 30 5 0
BITMAP
7C
7C
7C
7C
7C
7C
7C
7C
7C
7C
7C
7C
7C
7C
7C
7C
7C
7C
7C
7C
00
00
00
00
7C
7C
FE
FE
7C
7C
ENDCHAR

STARTCHAR quotedbl
ENCODING 34
SWIDTH 720 0
DWIDTH 18 0
BBX 9 14 4 18
BITMAP
E380
E380
E380
E380
E380
E380
E380
E380
E380
E380
E380
E380
E380
E380
ENDCHAR

STARTCHAR numbersign
ENCODING 35
SWIDTH 720 0
DWIDTH 18 0
BBX 15 36 1 -6
BITMAP
1C70
1C70
1C70
1C70
1C70
1C70
1C70
1C70
1C70
1C70
FFFE
FFFE
FFFE
FFFE
1C70
1C70
1C70
1C70
1C70
1C70
FFFE
FFFE
FFFE
FFFE
1C70
1C70
1C70
1C70
1C70
1C70
1C70
1C70
1C70
1C70
1C70
1C70
ENDCHAR

STARTCHAR dollar
ENCODING 36
SWIDTH 720 0
DWIDTH 18 0
BBX 15 38 1 -6
BITMAP
0780
0780
0780
0780
0780
0780
1FEE
1FEE
7FFE
787E
F03E
F03E
F01E
F01E
FE00
FE00
7FF0
7FF0
1FFC
1FFC
01FE
01FE
001E
001E
F01E
F01E
F03E
F03E
FFFC
FFFC
EFF0
EFF0
0780
0780
0780
0780
0780
0780
ENDCHAR

STARTCHAR percent
ENCODING 37
SWIDTH 720 0
DWIDTH 18 0
BBX 17 32 0 -2
BITMAP
3F8000
3F8000
F1E000
F1E000
F1E000
F1E000
F1E000
F1E000
F1E000
F1E000
3F8700
3F8700
001F00
001F00
00F800
00F800
03C000
03C000
0F0000
0F0000
7CFE00
7CFE00
73C780
73C780
03C780
03C780
03C780
03C780
03C780
03C780
00FE00
00FE00
ENDCHAR

STARTCHAR ampersand
ENCODING 38
SWIDTH 720 0
DWIDTH 18 0
BBX 15 28 1 0
BITMAP
0F60
0F60
1FE0
1FE0
38E0
38E0
3860
3860
3C00
3C00
1E00
1E00
0F00
0F00
3F86
3F86
7BCE
7BCE
F1FE
F1FE
F0F8
F0F8
F878
F878
7FFE
7FFE
1F9E
1F9E
ENDCHAR

STARTCHAR quoteright
ENCODING 39
SWIDTH 720 0
DWIDTH 18 0
BBX 8 12 5 20
BITMAP
1F
1F
3E
3E
3C
3C
78
78
70
70
E0
E0
ENDCHAR

STARTCHAR parenleft
ENCODING 40
SWIDTH 720 0
DWIDTH 18 0
BBX 9 38 4 -6
BITMAP
0380
0380
0F00
0F00
3E00
3E00
3C00
3C00
7800
7800
7800
7800
F000
F000
F000
F000
F000
F000
F000
F000
F000
F000
F000
F000
F000
F000
7800
7800
7800
7800
3C00
3C00
3E00
3E00
0F00
0F00
0380
0380
ENDCHAR

STARTCHAR parenright
ENCODING 41
SWIDTH 720 0
DWIDTH 18 0
BBX 9 38 4 -6
BITMAP
E000
E000
7800
7800
3E00
3E00
1E00
1E00
0F00
0F00
0F00
0F00
0780
0780
0780
0780
0780
0780
0780
0780
0780
0780
0780
0780
0780
0780
0F00
0F00
0F00
0F00
1E00
1E00
3E00
3E00
7800
7800
E000
E000
ENDCHAR

STARTCHAR asterisk
ENCODING 42
SWIDTH 720 0
DWIDTH 18 0
BBX 13 18 2 6
BITMAP
0700
0700
0700
0700
E738
E738
F778
F778
3FE0
3FE0
0F80
0F80
3DE0
3DE0
78F0
78F0
F078
F078
ENDCHAR

STARTCHAR plus
ENCODING 43
SWIDTH 720 0
DWIDTH 18 0
BBX 14 20 1 2
BITMAP
0780
0780
0780
0780
0780
0780
0780
0780
FFFC
FFFC
FFFC
FFFC
0780
0780
0780
0780
0780
0780
0780
0780
ENDCHAR

STARTCHAR comma
ENCODING 44
SWIDTH 720 0
DWIDTH 18 0
BBX 7 10 4 -4
BITMAP
3E
3E
3E
3E
7C
7C
F8
F8
E0
E0
ENDCHAR

STARTCHAR minus
ENCODING 45
SWIDTH 720 0
DWIDTH 18 0
BBX 13 4 2 10
BITMAP
FFF8
FFF8
FFF8
FFF8
ENDCHAR

STARTCHAR period
ENCODING 46
SWIDTH 720 0
DWIDTH 18 0
BBX 7 6 5 0
BITMAP
7C
7C
FE
FE
7C
7C
ENDCHAR

STARTCHAR slash
ENCODING 47
SWIDTH 720 0
DWIDTH 18 0
BBX 15 34 1 -2
BITMAP
003E
003E
003C
003C
007C
007C
00F8
00F8
00F8
00F8
01F0
01F0
03E0
03E0
03C0
03C0
07C0
07C0
0F80
0F80
0F00
0F00
1F00
1F00
3E00
3E00
3C00
3C00
7C00
7C00
7800
7800
F800
F800
ENDCHAR

STARTCHAR zero
ENCODING 48
SWIDTH 720 0
DWIDTH 18 0
BBX 15 30 1 0
BITMAP
07C0
07C0
1FF0
1FF0
3C78
3C78
783C
783C
783C
783C
F01E
F01E
F01E
F01E
F01E
F01E
F01E
F01E
F01E
F01E
783C
783C
783C
783C
3C78
3C78
1FF0
1FF0
07C0
07C0
ENDCHAR

STARTCHAR one
ENCODING 49
SWIDTH 720 0
DWIDTH 18 0
BBX 13 30 2 0
BITMAP
0380
0380
0F80
0F80
3F80
3F80
F780
F780
C780
C780
0780
0780
0780
0780
0780
0780
0780
0780
0780
0780
0780
0780
0780
0780
0780
0780
7FF8
7FF8
7FF8
7FF8
ENDCHAR

STARTCHAR two
ENCODING 50
SWIDTH 720 0
DWIDTH 18 0
BBX 14 30 1 0
BITMAP
1FE0
1FE0
7FF8
7FF8
F07C
F07C
E03C
E03C
E03C
E03C
0078
0078
00F0
00F0
01E0
01E0
03C0
03C0
0F00
0F00
1E00
1E00
3C00
3C00
781C
781C
FFFC
FFFC
FFFC
FFFC
ENDCHAR

STARTCHAR three
ENCODING 51
SWIDTH 720 0
DWIDTH 18 0
BBX 14 30 1 0
BITMAP
3FE0
3FE0
FFF8
FFF8
F07C
F07C
003C
003C
003C
003C
0078
0078
0FE0
0FE0
0FF8
0FF8
0078
0078
003C
003C
003C
003C
003C
003C
F078
F078
FFF8
FFF8
3FE0
3FE0
ENDCHAR

STARTCHAR four
ENCODING 52
SWIDTH 720 0
DWIDTH 18 0
BBX 15 30 1 0
BITMAP
0070
0070
01F0
01F0
03F0
03F0
0770
0770
0E70
0E70
1C70
1C70
3870
3870
7070
7070
E070
E070
FFFE
FFFE
FFFE
FFFE
0070
0070
0070
0070
0070
0070
0070
0070
ENDCHAR

STARTCHAR five
ENCODING 53
SWIDTH 720 0
DWIDTH 18 0
BBX 14 30 1 0
BITMAP
7FFC
7FFC
7FFC
7FFC
7000
7000
7000
7000
7000
7000
7000
7000
7FE0
7FE0
7FF8
7FF8
007C
007C
003C
003C
003C
003C
003C
003C
F07C
F07C
FFF8
FFF8
1FE0
1FE0
ENDCHAR

STARTCHAR six
ENCODING 54
SWIDTH 720 0
DWIDTH 18 0
BBX 15 30 1 0
BITMAP
00F8
00F8
07F8
07F8
1F00
1F00
3C00
3C00
7800
7800
7800
7800
FFF0
FFF0
FFFC
FFFC
F83C
F83C
F01E
F01E
F01E
F01E
F01E
F01E
783C
783C
7FFC
7FFC
1FF0
1FF0
ENDCHAR

STARTCHAR seven
ENCODING 55
SWIDTH 720 0
DWIDTH 18 0
BBX 15 30 1 0
BITMAP
FFFE
FFFE
FFFE
FFFE
001E
001E
003C
003C
003C
003C
0078
0078
0078
0078
00F0
00F0
00F0
00F0
01E0
01E0
01E0
01E0
01C0
01C0
03C0
03C0
0780
0780
0780
0780
ENDCHAR

STARTCHAR eight
ENCODING 56
SWIDTH 720 0
DWIDTH 18 0
BBX 15 30 1 0
BITMAP
0FE0
0FE0
3FF8
3FF8
783C
783C
F01E
F01E
F01E
F01E
783C
783C
1FF0
1FF0
7FFC
7FFC
783C
783C
F01E
F01E
F01E
F01E
F01E
F01E
783C
783C
7FFC
7FFC
1FF0
1FF0
ENDCHAR

STARTCHAR nine
ENCODING 57
SWIDTH 720 0
DWIDTH 18 0
BBX 15 30 1 0
BITMAP
1FF0
1FF0
7FFC
7FFC
783C
783C
F01E
F01E
F01E
F01E
F01E
F01E
F83E
F83E
7FFE
7FFE
1FFE
1FFE
003C
003C
003C
003C
0078
0078
00F8
00F8
7FE0
7FE0
7F80
7F80
ENDCHAR

STARTCHAR colon
ENCODING 58
SWIDTH 720 0
DWIDTH 18 0
BBX 7 20 5 0
BITMAP
7C
7C
FE
FE
7C
7C
00
00
00
00
00
00
00
00
7C
7C
FE
FE
7C
7C
ENDCHAR

STARTCHAR semicolon
ENCODING 59
SWIDTH 720 0
DWIDTH 18 0
BBX 8 24 4 -4
BITMAP
3E
3E
7F
7F
3E
3E
00
00
00
00
00
00
00
00
3E
3E
3E
3E
7C
7C
F8
F8
E0
E0
ENDCHAR

STARTCHAR less
ENCODING 60
SWIDTH 720 0
DWIDTH 18 0
BBX 12 24 2 0
BITMAP
0070
0070
01F0
01F0
07E0
07E0
1F80
1F80
7E00
7E00
F800
F800
7C00
7C00
3F00
3F00
0F80
0F80
03E0
03E0
01F0
01F0
0070
0070
ENDCHAR

STARTCHAR equal
ENCODING 61
SWIDTH 720 0
DWIDTH 18 0
BBX 13 14 2 4
BITMAP
FFF8
FFF8
FFF8
FFF8
0000
0000
0000
0000
0000
0000
FFF8
FFF8
FFF8
FFF8
ENDCHAR

STARTCHAR greater
ENCODING 62
SWIDTH 720 0
DWIDTH 18 0
BBX 12 24 3 0
BITMAP
E000
E000
F800
F800
7E00
7E00
1F80
1F80
07E0
07E0
01F0
01F0
03E0
03E0
0FC0
0FC0
1F00
1F00
7C00
7C00
F800
F800
E000
E000
ENDCHAR

STARTCHAR question
ENCODING 63
SWIDTH 720 0
DWIDTH 18 0
BBX 15 30 1 0
BITMAP
1FF0
1FF0
7FFC
7FFC
F83E
F83E
F03E
F03E
007E
007E
00FC
00FC
03F0
03F0
07C0
07C0
0780
0780
0780
0780
0000
0000
0000
0000
07C0
07C0
0FE0
0FE0
07C0
07C0
ENDCHAR

STARTCHAR at
ENCODING 64
SWIDTH 720 0
DWIDTH 18 0
BBX 15 36 1 -6
BITMAP
0FE0
0FE0
7FF8
7FF8
7038
7038
E01C
E01C
E01C
E01C
E01C
E01C
E3FC
E3FC
E7FC
E7FC
E73C
E73C
E73C
E73C
E73C
E73C
E7FE
E7FE
E3EE
E3EE
E000
E000
E000
E000
701E
701E
7FFE
7FFE
0FF0
0FF0
ENDCHAR

STARTCHAR A
ENCODING 65
SWIDTH 720 0
DWIDTH 18 0
BBX 14 30 1 0
BITMAP
0300
0300
0FC0
0FC0
0FC0
0FC0
1FE0
1FE0
3CF0
3CF0
3870
3870
7878
7878
7878
7878
7038
7038
FFFC
FFFC
FFFC
FFFC
F03C
F03C
F03C
F03C
F03C
F03C
F03C
F03C
ENDCHAR

STARTCHAR B
ENCODING 66
SWIDTH 720 0
DWIDTH 18 0
BBX 14 30 1 0
BITMAP
FFE0
FFE0
FFF8
FFF8
F07C
F07C
F03C
F03C
F03C
F03C
F07C
F07C
FFF8
FFF8
FFF0
FFF0
F078
F078
F03C
F03C
F03C
F03C
F03C
F03C
F07C
F07C
FFF8
FFF8
FFE0
FFE0
ENDCHAR

STARTCHAR C
ENCODING 67
SWIDTH 720 0
DWIDTH 18 0
BBX 15 30 1 0
BITMAP
0FEE
0FEE
3FFE
3FFE
781E
781E
701E
701E
F000
F000
F000
F000
F000
F000
F000
F000
F000
F000
F000
F000
F000
F000
7000
7000
781E
781E
3FFE
3FFE
0FF0
0FF0
ENDCHAR

STARTCHAR D
ENCODING 68
SWIDTH 720 0
DWIDTH 18 0
BBX 15 30 1 0
BITMAP
FFE0
FFE0
FFF8
FFF8
F07C
F07C
F03C
F03C
F03E
F03E
F01E
F01E
F01E
F01E
F01E
F01E
F01E
F01E
F01E
F01E
F03E
F03E
F03C
F03C
F07C
F07C
FFF8
FFF8
FFE0
FFE0
ENDCHAR

STARTCHAR E
ENCODING 69
SWIDTH 720 0
DWIDTH 18 0
BBX 14 30 1 0
BITMAP
FFFC
FFFC
FFFC
FFFC
F000
F000
F000
F000
F000
F000
F000
F000
FFF0
FFF0
FFF0
FFF0
F000
F000
F000
F000
F000
F000
F000
F000
F000
F000
FFFC
FFFC
FFFC
FFFC
ENDCHAR

STARTCHAR F
ENCODING 70
SWIDTH 720 0
DWIDTH 18 0
BBX 14 30 2 0
BITMAP
FFFC
FFFC
FFFC
FFFC
F000
F000
F000
F000
F000
F000
F000
F000
FFE0
FFE0
FFE0
FFE0
F000
F000
F000
F000
F000
F000
F000
F000
F000
F000
F000
F000
F000
F000
ENDCHAR

STARTCHAR G
ENCODING 71
SWIDTH 720 0
DWIDTH 18 0
BBX 15 30 1 0
BITMAP
0FEE
0FEE
3FFE
3FFE
781E
781E
700E
700E
F00E
F00E
F000
F000
F000
F000
F0FE
F0FE
F0FE
F0FE
F01E
F01E
F01E
F01E
701E
701E
783E
783E
3FFE
3FFE
0FF0
0FF0
ENDCHAR

STARTCHAR H
ENCODING 72
SWIDTH 720 0
DWIDTH 18 0
BBX 15 30 1 0
BITMAP
F01E
F01E
F01E
F01E
F01E
F01E
F01E
F01E
F01E
F01E
F01E
F01E
FFFE
FFFE
FFFE
FFFE
F01E
F01E
F01E
F01E
F01E
F01E
F01E
F01E
F01E
F01E
F01E
F01E
F01E
F01E
ENDCHAR

STARTCHAR I
ENCODING 73
SWIDTH 720 0
DWIDTH 18 0
BBX 14 30 1 0
BITMAP
FFFC
FFFC
FFFC
FFFC
0780
0780
0780
0780
0780
0780
0780
0780
0780
0780
0780
0780
0780
0780
0780
0780
0780
0780
0780
0780
0780
0780
FFFC
FFFC
FFFC
FFFC
ENDCHAR

STARTCHAR J
ENCODING 74
SWIDTH 720 0
DWIDTH 18 0
BBX 15 30 1 0
BITMAP
1FFE
1FFE
1FFE
1FFE
00F0
00F0
00F0
00F0
00F0
00F0
00F0
00F0
00F0
00F0
00F0
00F0
00F0
00F0
F0F0
F0F0
F0F0
F0F0
F0F0
F0F0
70E0
70E0
7FE0
7FE0
1F80
1F80
ENDCHAR

STARTCHAR K
ENCODING 75
SWIDTH 720 0
DWIDTH 18 0
BBX 15 30 1 0
BITMAP
F03C
F03C
F07C
F07C
F0F0
F0F0
F1E0
F1E0
F3C0
F3C0
F780
F780
FF00
FF00
FF00
FF00
FF80
FF80
F7C0
F7C0
F3F0
F3F0
F0F8
F0F8
F07C
F07C
F03E
F03E
F01E
F01E
ENDCHAR

STARTCHAR L
ENCODING 76
SWIDTH 720 0
DWIDTH 18 0
BBX 12 30 4 0
BITMAP
F000
F000
F000
F000
F000
F000
F000
F000
F000
F000
F000
F000
F000
F000
F000
F000
F000
F000
F000
F000
F000
F000
F000
F000
F000
F000
FFF0
FFF0
FFF0
FFF0
ENDCHAR

STARTCHAR M
ENCODING 77
SWIDTH 720 0
DWIDTH 18 0
BBX 15 30 1 0
BITMAP
F01E
F01E
F01E
F01E
F83E
F83E
F83E
F83E
FC7E
FC7E
FC7E
FC7E
FEFE
FEFE
F7DE
F7DE
F7DE
F7DE
F39E
F39E
F39E
F39E
F39E
F39E
F01E
F01E
F01E
F01E
F01E
F01E
ENDCHAR

STARTCHAR N
ENCODING 78
SWIDTH 720 0
DWIDTH 18 0
BBX 15 30 1 0
BITMAP
F81E
F81E
F81E
F81E
FC1E
FC1E
FE1E
FE1E
FE1E
FE1E
FF1E
FF1E
F71E
F71E
F39E
F39E
F1DE
F1DE
F1FE
F1FE
F0FE
F0FE
F07E
F07E
F07E
F07E
F03E
F03E
F03E
F03E
ENDCHAR

STARTCHAR O
ENCODING 79
SWIDTH 720 0
DWIDTH 18 0
BBX 15 30 1 0
BITMAP
0FE0
0FE0
7FFC
7FFC
783C
783C
F01E
F01E
F01E
F01E
F01E
F01E
F01E
F01E
F01E
F01E
F01E
F01E
F01E
F01E
F01E
F01E
F01E
F01E
783C
783C
7FFC
7FFC
0FE0
0FE0
ENDCHAR

STARTCHAR P
ENCODING 80
SWIDTH 720 0
DWIDTH 18 0
BBX 15 30 1 0
BITMAP
FFF0
FFF0
FFFC
FFFC
F03E
F03E
F01E
F01E
F01E
F01E
F01E
F01E
F03E
F03E
FFFC
FFFC
FFF0
FFF0
F000
F000
F000
F000
F000
F000
F000
F000
F000
F000
F000
F000
ENDCHAR

STARTCHAR Q
ENCODING 81
SWIDTH 720 0
DWIDTH 18 0
BBX 15 38 1 -8
BITMAP
0FE0
0FE0
7FFC
7FFC
783C
783C
F01E
F01E
F01E
F01E
F01E
F01E
F01E
F01E
F01E
F01E
F01E
F01E
F01E
F01E
F01E
F01E
F01E
F01E
783C
783C
7FFC
7FFC
0FE0
0FE0
1C00
1C00
3F8E
3F8E
77FE
77FE
60FC
60FC
ENDCHAR

STARTCHAR R
ENCODING 82
SWIDTH 720 0
DWIDTH 18 0
BBX 15 30 1 0
BITMAP
FFF0
FFF0
FFFC
FFFC
F03E
F03E
F01E
F01E
F01E
F01E
F01E
F01E
F03C
F03C
FFF8
FFF8
FFE0
FFE0
F1E0
F1E0
F0F0
F0F0
F070
F070
F078
F078
F03E
F03E
F03E
F03E
ENDCHAR

STARTCHAR S
ENCODING 83
SWIDTH 720 0
DWIDTH 18 0
BBX 15 30 1 0
BITMAP
0FDE
0FDE
3FFE
3FFE
781E
781E
F01E
F01E
F000
F000
F800
F800
7F80
7F80
1FF0
1FF0
03FC
03FC
007C
007C
003E
003E
F03E
F03E
F07E
F07E
FFFC
FFFC
EFF0
EFF0
ENDCHAR

STARTCHAR T
ENCODING 84
SWIDTH 720 0
DWIDTH 18 0
BBX 14 30 2 0
BITMAP
FFFC
FFFC
FFFC
FFFC
0780
0780
0780
0780
0780
0780
0780
0780
0780
0780
0780
0780
0780
0780
0780
0780
0780
0780
0780
0780
0780
0780
0780
0780
0780
0780
ENDCHAR

STARTCHAR U
ENCODING 85
SWIDTH 720 0
DWIDTH 18 0
BBX 15 30 1 0
BITMAP
F01E
F01E
F01E
F01E
F01E
F01E
F01E
F01E
F01E
F01E
F01E
F01E
F01E
F01E
F01E
F01E
F01E
F01E
F01E
F01E
F01E
F01E
F01E
F01E
F83E
F83E
7FFC
7FFC
1FF0
1FF0
ENDCHAR

STARTCHAR V
ENCODING 86
SWIDTH 720 0
DWIDTH 18 0
BBX 15 30 1 0
BITMAP
F01E
F01E
F01E
F01E
F01E
F01E
F01E
F01E
F01E
F01E
F01E
F01E
F01E
F01E
F01E
F01E
701C
701C
783C
783C
783C
783C
3C78
3C78
1FF0
1FF0
0FE0
0FE0
0380
0380
ENDCHAR

STARTCHAR W
ENCODING 87
SWIDTH 720 0
DWIDTH 18 0
BBX 15 30 1 0
BITMAP
F01E
F01E
F01E
F01E
F01E
F01E
F01E
F01E
F01E
F01E
F39E
F39E
F39E
F39E
F39E
F39E
F7DE
F7DE
FFFE
FFFE
FC7E
FC7E
F83E
F83E
783C
783C
701C
701C
701C
701C
ENDCHAR

STARTCHAR X
ENCODING 88
SWIDTH 720 0
DWIDTH 18 0
BBX 15 30 1 0
BITMAP
F01E
F01E
F83E
F83E
783C
783C
3C78
3C78
1EF0
1EF0
0FE0
0FE0
0FE0
0FE0
07C0
07C0
0FE0
0FE0
1FF0
1FF0
1EF0
1EF0
3C78
3C78
7C7C
7C7C
F83E
F83E
F83E
F83E
ENDCHAR

STARTCHAR Y
ENCODING 89
SWIDTH 720 0
DWIDTH 18 0
BBX 16 30 1 0
BITMAP
F81F
F81F
F81F
F81F
781E
781E
7C3E
7C3E
3C3C
3C3C
1E78
1E78
0FF0
0FF0
07E0
07E0
03C0
03C0
03C0
03C0
03C0
03C0
03C0
03C0
03C0
03C0
03C0
03C0
03C0
03C0
ENDCHAR

STARTCHAR Z
ENCODING 90
SWIDTH 720 0
DWIDTH 18 0
BBX 15 30 1 0
BITMAP
FFFC
FFFC
FFFC
FFFC
E078
E078
E0F0
E0F0
E1E0
E1E0
03C0
03C0
03C0
03C0
0780
0780
0F00
0F00
1E00
1E00
1E0E
1E0E
3C0E
3C0E
780E
780E
FFFE
FFFE
FFFE
FFFE
ENDCHAR

STARTCHAR bracketleft
ENCODING 91
SWIDTH 720 0
DWIDTH 18 0
BBX 7 38 5 -6
BITMAP
FE
FE
FE
FE
F0
F0
F0
F0
F0
F0
F0
F0
F0
F0
F0
F0
F0
F0
F0
F0
F0
F0
F0
F0
F0
F0
F0
F0
F0
F0
F0
F0
F0
F0
FE
FE
FE
FE
ENDCHAR

STARTCHAR backslash
ENCODING 92
SWIDTH 720 0
DWIDTH 18 0
BBX 15 34 1 -2
BITMAP
F800
F800
7800
7800
7C00
7C00
3E00
3E00
3E00
3E00
1F00
1F00
0F80
0F80
0780
0780
07C0
07C0
03E0
03E0
01E0
01E0
01F0
01F0
00F8
00F8
0078
0078
007C
007C
003C
003C
003E
003E
ENDCHAR

STARTCHAR bracketright
ENCODING 93
SWIDTH 720 0
DWIDTH 18 0
BBX 7 38 4 -6
BITMAP
FE
FE
FE
FE
1E
1E
1E
1E
1E
1E
1E
1E
1E
1E
1E
1E
1E
1E
1E
1E
1E
1E
1E
1E
1E
1E
1E
1E
1E
1E
1E
1E
1E
1E
FE
FE
FE
FE
ENDCHAR

STARTCHAR asciicircum
ENCODING 94
SWIDTH 720 0
DWIDTH 18 0
BBX 13 10 2 14
BITMAP
0F80
0F80
3FE0
3FE0
78F0
78F0
F078
F078
E038
E038
ENDCHAR

STARTCHAR underscore
ENCODING 95
SWIDTH 720 0
DWIDTH 18 0
BBX 17 4 0 0
BITMAP
FFFF80
FFFF80
FFFF80
FFFF80
ENDCHAR

STARTCHAR quoteleft
ENCODING 96
SWIDTH 720 0
DWIDTH 18 0
BBX 8 12 3 20
BITMAP
F8
F8
7C
7C
3C
3C
1E
1E
0E
0E
0F
0F
ENDCHAR

STARTCHAR a
ENCODING 97
SWIDTH 720 0
DWIDTH 18 0
BBX 14 24 1 0
BITMAP
3FE0
3FE0
7FF8
7FF8
0078
0078
003C
003C
1FFC
1FFC
7FFC
7FFC
FC3C
FC3C
F83C
F83C
F83C
F83C
FC7C
FC7C
7FFC
7FFC
1FBC
1FBC
ENDCHAR

STARTCHAR b
ENCODING 98
SWIDTH 720 0
DWIDTH 18 0
BBX 14 32 1 0
BITMAP
F000
F000
F000
F000
F000
F000
F000
F000
F7E0
F7E0
FFF8
FFF8
F878
F878
F03C
F03C
F03C
F03C
F03C
F03C
F03C
F03C
F03C
F03C
F03C
F03C
F878
F878
FFF8
FFF8
F7E0
F7E0
ENDCHAR

STARTCHAR c
ENCODING 99
SWIDTH 720 0
DWIDTH 18 0
BBX 14 24 1 0
BITMAP
1FDC
1FDC
7FFC
7FFC
787C
787C
F03C
F03C
F000
F000
F000
F000
F000
F000
F000
F000
F000
F000
783C
783C
7FFC
7FFC
1FF0
1FF0
ENDCHAR

STARTCHAR d
ENCODING 100
SWIDTH 720 0
DWIDTH 18 0
BBX 14 32 1 0
BITMAP
003C
003C
003C
003C
003C
003C
003C
003C
1FBC
1FBC
7FFC
7FFC
787C
787C
F03C
F03C
F03C
F03C
F03C
F03C
F03C
F03C
F03C
F03C
F03C
F03C
787C
787C
7FFC
7FFC
1FBC
1FBC
ENDCHAR

STARTCHAR e
ENCODING 101
SWIDTH 720 0
DWIDTH 18 0
BBX 14 24 1 0
BITMAP
1FE0
1FE0
7FF8
7FF8
7878
7878
F03C
F03C
F03C
F03C
FFFC
FFFC
FFFC
FFFC
F000
F000
F000
F000
783C
783C
7FFC
7FFC
1FF0
1FF0
ENDCHAR

STARTCHAR f
ENCODING 102
SWIDTH 720 0
DWIDTH 18 0
BBX 14 32 2 0
BITMAP
07FC
07FC
0FFC
0FFC
0F00
0F00
0F00
0F00
FFF8
FFF8
FFF8
FFF8
0F00
0F00
0F00
0F00
0F00
0F00
0F00
0F00
0F00
0F00
0F00
0F00
0F00
0F00
0F00
0F00
7FE0
7FE0
7FE0
7FE0
ENDCHAR

STARTCHAR g
ENCODING 103
SWIDTH 720 0
DWIDTH 18 0
BBX 14 34 1 -10
BITMAP
1FBC
1FBC
7FFC
7FFC
787C
787C
F03C
F03C
F03C
F03C
F03C
F03C
F03C
F03C
F03C
F03C
F03C
F03C
787C
787C
7FFC
7FFC
1F3C
1F3C
003C
003C
003C
003C
0078
0078
1FF8
1FF8
1FE0
1FE0
ENDCHAR

STARTCHAR h
ENCODING 104
SWIDTH 720 0
DWIDTH 18 0
BBX 14 32 1 0
BITMAP
F000
F000
F000
F000
F000
F000
F000
F000
F3E0
F3E0
FFF8
FFF8
FC78
FC78
F83C
F83C
F03C
F03C
F03C
F03C
F03C
F03C
F03C
F03C
F03C
F03C
F03C
F03C
F03C
F03C
F03C
F03C
ENDCHAR

STARTCHAR i
ENCODING 105
SWIDTH 720 0
DWIDTH 18 0
BBX 14 34 2 0
BITMAP
0780
0780
0780
0780
0780
0780
0000
0000
0000
0000
7F80
7F80
7F80
7F80
0780
0780
0780
0780
0780
0780
0780
0780
0780
0780
0780
0780
0780
0780
0780
0780
FFFC
FFFC
FFFC
FFFC
ENDCHAR

STARTCHAR j
ENCODING 106
SWIDTH 720 0
DWIDTH 18 0
BBX 10 44 2 -10
BITMAP
03C0
03C0
03C0
03C0
03C0
03C0
0000
0000
0000
0000
3FC0
3FC0
3FC0
3FC0
03C0
03C0
03C0
03C0
03C0
03C0
03C0
03C0
03C0
03C0
03C0
03C0
03C0
03C0
03C0
03C0
03C0
03C0
03C0
03C0
03C0
03C0
03C0
03C0
0780
0780
FF80
FF80
FC00
FC00
ENDCHAR

STARTCHAR k
ENCODING 107
SWIDTH 720 0
DWIDTH 18 0
BBX 14 32 1 0
BITMAP
F000
F000
F000
F000
F000
F000
F000
F000
F03C
F03C
F07C
F07C
F0F0
F0F0
F3E0
F3E0
F780
F780
FF00
FF00
FF80
FF80
FFC0
FFC0
F3E0
F3E0
F1F8
F1F8
F07C
F07C
F03C
F03C
ENDCHAR

STARTCHAR l
ENCODING 108
SWIDTH 720 0
DWIDTH 18 0
BBX 12 32 3 0
BITMAP
FF00
FF00
FF00
FF00
0F00
0F00
0F00
0F00
0F00
0F00
0F00
0F00
0F00
0F00
0F00
0F00
0F00
0F00
0F00
0F00
0F00
0F00
0F00
0F00
0F00
0F00
0F00
0F00
FFF0
FFF0
FFF0
FFF0
ENDCHAR

STARTCHAR m
ENCODING 109
SWIDTH 720 0
DWIDTH 18 0
BBX 16 24 1 0
BITMAP
CF3C
CF3C
FFFE
FFFE
F7DF
F7DF
F3CF
F3CF
F3CF
F3CF
F3CF
F3CF
F3CF
F3CF
F3CF
F3CF
F3CF
F3CF
F3CF
F3CF
F3CF
F3CF
F3CF
F3CF
ENDCHAR

STARTCHAR n
ENCODING 110
SWIDTH 720 0
DWIDTH 18 0
BBX 14 24 1 0
BITMAP
F3E0
F3E0
FFF8
FFF8
FC78
FC78
F83C
F83C
F03C
F03C
F03C
F03C
F03C
F03C
F03C
F03C
F03C
F03C
F03C
F03C
F03C
F03C
F03C
F03C
ENDCHAR

STARTCHAR o
ENCODING 111
SWIDTH 720 0
DWIDTH 18 0
BBX 14 24 1 0
BITMAP
1FE0
1FE0
7FF8
7FF8
7878
7878
F03C
F03C
F03C
F03C
F03C
F03C
F03C
F03C
F03C
F03C
F03C
F03C
7878
7878
7FF8
7FF8
1FE0
1FE0
ENDCHAR

STARTCHAR p
ENCODING 112
SWIDTH 720 0
DWIDTH 18 0
BBX 14 34 1 -10
BITMAP
F7E0
F7E0
FFF8
FFF8
F878
F878
F03C
F03C
F03C
F03C
F03C
F03C
F03C
F03C
F03C
F03C
F03C
F03C
F878
F878
FFF8
FFF8
F7E0
F7E0
F000
F000
F000
F000
F000
F000
F000
F000
F000
F000
ENDCHAR

STARTCHAR q
ENCODING 113
SWIDTH 720 0
DWIDTH 18 0
BBX 14 34 1 -10
BITMAP
1FBC
1FBC
7FFC
7FFC
787C
787C
F03C
F03C
F03C
F03C
F03C
F03C
F03C
F03C
F03C
F03C
F03C
F03C
787C
787C
7FFC
7FFC
1FBC
1FBC
003C
003C
003C
003C
003C
003C
003C
003C
003C
003C
ENDCHAR

STARTCHAR r
ENCODING 114
SWIDTH 720 0
DWIDTH 18 0
BBX 13 24 3 0
BITMAP
F3F0
F3F0
FFF8
FFF8
FC78
FC78
F000
F000
F000
F000
F000
F000
F000
F000
F000
F000
F000
F000
F000
F000
F000
F000
F000
F000
ENDCHAR

STARTCHAR s
ENCODING 115
SWIDTH 720 0
DWIDTH 18 0
BBX 14 24 1 0
BITMAP
1FDC
1FDC
7FFC
7FFC
F83C
F83C
F800
F800
FF00
FF00
7FE0
7FE0
0FF8
0FF8
01FC
01FC
007C
007C
E07C
E07C
FFF8
FFF8
FFE0
FFE0
ENDCHAR

STARTCHAR t
ENCODING 116
SWIDTH 720 0
DWIDTH 18 0
BBX 15 32 1 0
BITMAP
1E00
1E00
1E00
1E00
1E00
1E00
1E00
1E00
FFF8
FFF8
FFF8
FFF8
1E00
1E00
1E00
1E00
1E00
1E00
1E00
1E00
1E00
1E00
1E00
1E00
1E00
1E00
1F1E
1F1E
0FFE
0FFE
07F8
07F8
ENDCHAR

STARTCHAR u
ENCODING 117
SWIDTH 720 0
DWIDTH 18 0
BBX 14 24 1 0
BITMAP
F03C
F03C
F03C
F03C
F03C
F03C
F03C
F03C
F03C
F03C
F03C
F03C
F03C
F03C
F03C
F03C
F03C
F03C
787C
787C
7FFC
7FFC
0FBC
0FBC
ENDCHAR

STARTCHAR v
ENCODING 118
SWIDTH 720 0
DWIDTH 18 0
BBX 15 24 1 0
BITMAP
F01E
F01E
F01E
F01E
F83E
F83E
783C
783C
783C
783C
3C78
3C78
1C70
1C70
1EF0
1EF0
0FE0
0FE0
0FE0
0FE0
07C0
07C0
07C0
07C0
ENDCHAR

STARTCHAR w
ENCODING 119
SWIDTH 720 0
DWIDTH 18 0
BBX 15 24 1 0
BITMAP
F01E
F01E
F01E
F01E
F39E
F39E
F39E
F39E
F39E
F39E
F39E
F39E
F39E
F39E
77DC
77DC
77DC
77DC
7EFC
7EFC
3C78
3C78
3C78
3C78
ENDCHAR

STARTCHAR x
ENCODING 120
SWIDTH 720 0
DWIDTH 18 0
BBX 13 24 2 0
BITMAP
F078
F078
F8F8
F8F8
78F0
78F0
3DE0
3DE0
1FC0
1FC0
0F80
0F80
1FC0
1FC0
1FC0
1FC0
3DE0
3DE0
78F0
78F0
F078
F078
F078
F078
ENDCHAR

STARTCHAR y
ENCODING 121
SWIDTH 720 0
DWIDTH 18 0
BBX 15 34 1 -10
BITMAP
F83E
F83E
F83E
F83E
783C
783C
7C7C
7C7C
3C78
3C78
3C70
3C70
1C70
1C70
0EE0
0EE0
0EE0
0EE0
0FE0
0FE0
07C0
07C0
07C0
07C0
0780
0780
0780
0780
0F00
0F00
0F00
0F00
0F00
0F00
ENDCHAR

STARTCHAR z
ENCODING 122
SWIDTH 720 0
DWIDTH 18 0
BBX 13 24 2 0
BITMAP
FFF8
FFF8
FFF8
FFF8
00F8
00F8
01F0
01F0
03E0
03E0
0FC0
0FC0
1F80
1F80
3E00
3E00
7C00
7C00
F800
F800
FFF8
FFF8
FFF8
FFF8
ENDCHAR

STARTCHAR braceleft
ENCODING 123
SWIDTH 720 0
DWIDTH 18 0
BBX 9 38 4 -6
BITMAP
0780
0780
0F80
0F80
0E00
0E00
1E00
1E00
1E00
1E00
1E00
1E00
1E00
1E00
1C00
1C00
3C00
3C00
F800
F800
3C00
3C00
1C00
1C00
1E00
1E00
1E00
1E00
1E00
1E00
1E00
1E00
0E00
0E00
0F80
0F80
0780
0780
ENDCHAR

STARTCHAR bar
ENCODING 124
SWIDTH 720 0
DWIDTH 18 0
BBX 4 36 7 -4
BITMAP
F0
F0
F0
F0
F0
F0
F0
F0
F0
F0
F0
F0
F0
F0
F0
F0
F0
F0
F0
F0
F0
F0
F0
F0
F0
F0
F0
F0
F0
F0
F0
F0
F0
F0
F0
F0
ENDCHAR

STARTCHAR braceright
ENCODING 125
SWIDTH 720 0
DWIDTH 18 0
BBX 9 38 4 -6
BITMAP
F000
F000
F800
F800
3800
3800
3C00
3C00
3C00
3C00
3C00
3C00
3C00
3C00
1C00
1C00
1E00
1E00
0F80
0F80
1E00
1E00
1C00
1C00
3C00
3C00
3C00
3C00
3C00
3C00
3C00
3C00
3800
3800
F800
F800
F000
F000
ENDCHAR

STARTCHAR asciitilde
ENCODING 126
SWIDTH 720 0
DWIDTH 18 0
BBX 13 10 2 14
BITMAP
3C38
3C38
7E38
7E38
F778
F778
E3F0
E3F0
E1E0
E1E0
ENDCHAR

STARTCHAR Error
ENCODING 159
SWIDTH 720 0
DWIDTH 18 0
BBX 17 50 0 -10
BITMAP
0FFC00
0FFC00
3FFF00
3FFF00
7FFF80
7FFF80
FC1F80
FC1F80
F80F80
F80F80
F80F80
F80F80
FC0F80
FC0F80
FE0000
FE0000
7F0000
7F0000
3F8000
3F8000
1FC000
1FC000
0FE000
0FE000
07E000
07E000
07E000
07E000
07E000
07E000
07E000
07E000
000000
000000
000000
000000
000000
000000
03C000
03C000
07E000
07E000
0FF000
0FF000
0FF000
0FF000
07E000
07E000
03C000
03C000
ENDCHAR

STARTCHAR exclamdown
ENCODING 161
SWIDTH 720 0
DWIDTH 18 0
BBX 7 30 5 -4
BITMAP
7C
7C
FE
FE
7C
7C
00
00
00
00
7C
7C
7C
7C
7C
7C
7C
7C
7C
7C
7C
7C
7C
7C
7C
7C
7C
7C
7C
7C
ENDCHAR

STARTCHAR cent
ENCODING 162
SWIDTH 720 0
DWIDTH 18 0
BBX 15 34 1 -2
BITMAP
03C0
03C0
03C0
03C0
03C0
03C0
1FEE
1FEE
7FFE
7FFE
F81E
F81E
F000
F000
F000
F000
F000
F000
F000
F000
F01E
F01E
F81E
F81E
7FFE
7FFE
1FF0
1FF0
03C0
03C0
03C0
03C0
03C0
03C0
ENDCHAR

STARTCHAR sterling
ENCODING 163
SWIDTH 720 0
DWIDTH 18 0
BBX 16 30 1 0
BITMAP
07E0
07E0
1FFC
1FFC
1FFC
1FFC
3C1C
3C1C
3C00
3C00
1E00
1E00
1E00
1E00
7FE0
7FE0
7FE0
7FE0
0E00
0E00
0F00
0F00
0F00
0F00
1F87
1F87
FFFF
FFFF
F1FC
F1FC
ENDCHAR

STARTCHAR currency
ENCODING 164
SWIDTH 720 0
DWIDTH 18 0
BBX 15 22 1 4
BITMAP
F01E
F01E
FFFE
FFFE
1FF0
1FF0
3C78
3C78
3838
3838
3838
3838
3838
3838
3C78
3C78
1FF0
1FF0
FFFE
FFFE
F01E
F01E
ENDCHAR

STARTCHAR yen
ENCODING 165
SWIDTH 720 0
DWIDTH 18 0
BBX 16 30 0 0
BITMAP
F81F
F81F
F81F
F81F
781E
781E
7C3E
7C3E
3C3C
3C3C
1E78
1E78
7FFE
7FFE
7FFE
7FFE
03C0
03C0
7FFE
7FFE
7FFE
7FFE
03C0
03C0
03C0
03C0
03C0
03C0
03C0
03C0
ENDCHAR

STARTCHAR brokenbar
ENCODING 166
SWIDTH 720 0
DWIDTH 18 0
BBX 4 40 7 -8
BITMAP
F0
F0
F0
F0
F0
F0
F0
F0
F0
F0
F0
F0
F0
F0
F0
F0
00
00
00
00
00
00
00
00
F0
F0
F0
F0
F0
F0
F0
F0
F0
F0
F0
F0
F0
F0
F0
F0
ENDCHAR

STARTCHAR section
ENCODING 167
SWIDTH 720 0
DWIDTH 18 0
BBX 13 36 2 -6
BITMAP
1FC0
1FC0
7FF0
7FF0
F070
F070
F070
F070
7C00
7C00
7F00
7F00
FF80
FF80
E3E0
E3E0
F0F0
F0F0
7878
7878
3E38
3E38
1FF8
1FF8
07F0
07F0
01E0
01E0
E0F0
E0F0
F1F0
F1F0
FFE0
FFE0
3F80
3F80
ENDCHAR

STARTCHAR dieresis
ENCODING 168
SWIDTH 720 0
DWIDTH 18 0
BBX 12 6 2 28
BITMAP
F0F0
F0F0
F0F0
F0F0
F0F0
F0F0
ENDCHAR

STARTCHAR copyright
ENCODING 169
SWIDTH 720 0
DWIDTH 18 0
BBX 15 26 1 2
BITMAP
1FF0
1FF0
7FFC
7FFC
600C
600C
C7E6
C7E6
CFE6
CFE6
CC06
CC06
CC06
CC06
CC06
CC06
CFE6
CFE6
C7E6
C7E6
600C
600C
7FFC
7FFC
1FF0
1FF0
ENDCHAR

STARTCHAR ordfeminine
ENCODING 170
SWIDTH 720 0
DWIDTH 18 0
BBX 15 24 1 6
BITMAP
7FF0
7FF0
7FFC
7FFC
001E
001E
3FFE
3FFE
FC1E
FC1E
F81E
F81E
FFFE
FFFE
3FFE
3FFE
0000
0000
0000
0000
FFFE
FFFE
FFFE
FFFE
ENDCHAR

STARTCHAR guillemotleft
ENCODING 171
SWIDTH 720 0
DWIDTH 18 0
BBX 15 20 1 2
BITMAP
0306
0306
0F1E
0F1E
1C38
1C38
78F0
78F0
E1C0
E1C0
E1C0
E1C0
78F0
78F0
1C38
1C38
0F1E
0F1E
0306
0306
ENDCHAR

STARTCHAR logicalnot
ENCODING 172
SWIDTH 720 0
DWIDTH 18 0
BBX 15 12 1 8
BITMAP
FFFE
FFFE
FFFE
FFFE
001E
001E
001E
001E
001E
001E
001E
001E
ENDCHAR

STARTCHAR hyphen
ENCODING 173
SWIDTH 720 0
DWIDTH 18 0
BBX 9 6 4 8
BITMAP
FF80
FF80
FF80
FF80
FF80
FF80
ENDCHAR

STARTCHAR registered
ENCODING 174
SWIDTH 720 0
DWIDTH 18 0
BBX 15 26 1 2
BITMAP
1FF0
1FF0
7FFC
7FFC
600C
600C
C006
C006
CFC6
CFC6
CC66
CC66
CFC6
CFC6
CC66
CC66
CC66
CC66
C006
C006
600C
600C
7FFC
7FFC
1FF0
1FF0
ENDCHAR

STARTCHAR macron
ENCODING 175
SWIDTH 720 0
DWIDTH 18 0
BBX 9 4 4 30
BITMAP
FF80
FF80
FF80
FF80
ENDCHAR

STARTCHAR degree
ENCODING 176
SWIDTH 720 0
DWIDTH 18 0
BBX 14 16 1 14
BITMAP
1FE0
1FE0
7FF8
7FF8
F03C
F03C
F03C
F03C
F03C
F03C
F03C
F03C
7FF8
7FF8
1FE0
1FE0
ENDCHAR

STARTCHAR plusminus
ENCODING 177
SWIDTH 720 0
DWIDTH 18 0
BBX 15 26 1 0
BITMAP
07C0
07C0
07C0
07C0
07C0
07C0
07C0
07C0
FFFE
FFFE
FFFE
FFFE
07C0
07C0
07C0
07C0
07C0
07C0
07C0
07C0
0000
0000
FFFE
FFFE
FFFE
FFFE
ENDCHAR

STARTCHAR twosuperior
ENCODING 178
SWIDTH 720 0
DWIDTH 18 0
BBX 10 18 4 12
BITMAP
FF00
FF00
FFC0
FFC0
01C0
01C0
03C0
03C0
0F00
0F00
1C00
1C00
7800
7800
FFC0
FFC0
FFC0
FFC0
ENDCHAR

STARTCHAR threesuperior
ENCODING 179
SWIDTH 720 0
DWIDTH 18 0
BBX 10 18 3 12
BITMAP
FF00
FF00
FF80
FF80
01C0
01C0
7F80
7F80
7FC0
7FC0
01C0
01C0
01C0
01C0
FF80
FF80
FF00
FF00
ENDCHAR

STARTCHAR acute
ENCODING 180
SWIDTH 720 0
DWIDTH 18 0
BBX 9 6 5 28
BITMAP
0F80
0F80
3E00
3E00
F800
F800
ENDCHAR

STARTCHAR mu
ENCODING 181
SWIDTH 720 0
DWIDTH 18 0
BBX 15 28 1 -8
BITMAP
1F1E
1F1E
1F1E
1F1E
1E3C
1E3C
3E3C
3E3C
3C3C
3C3C
3C38
3C38
3C78
3C78
7878
7878
7FFE
7FFE
7FCE
7FCE
7000
7000
F000
F000
E000
E000
E000
E000
ENDCHAR

STARTCHAR paragraph
ENCODING 182
SWIDTH 720 0
DWIDTH 18 0
BBX 15 36 1 -6
BITMAP
0FFE
0FFE
7F1C
7F1C
7F1C
7F1C
FF1C
FF1C
FF1C
FF1C
FF1C
FF1C
7F1C
7F1C
1F1C
1F1C
071C
071C
071C
071C
071C
071C
071C
071C
071C
071C
071C
071C
071C
071C
071C
071C
071C
071C
071C
071C
ENDCHAR

STARTCHAR periodcentered
ENCODING 183
SWIDTH 720 0
DWIDTH 18 0
BBX 7 8 5 8
BITMAP
00
7C
FE
FE
FE
7E
78
7C
ENDCHAR

STARTCHAR cedilla
ENCODING 184
SWIDTH 720 0
DWIDTH 18 0
BBX 8 8 4 -8
BITMAP
1C
1C
07
03
FF
1F
60
06
ENDCHAR

STARTCHAR onesuperior
ENCODING 185
SWIDTH 720 0
DWIDTH 18 0
BBX 6 18 5 12
BITMAP
38
38
78
78
B8
B8
38
38
38
38
38
38
38
38
38
38
7C
7C
ENDCHAR

STARTCHAR ordmasculine
ENCODING 186
SWIDTH 720 0
DWIDTH 18 0
BBX 15 24 1 6
BITMAP
1FF0
1FF0
7FFC
7FFC
783C
783C
F01E
F01E
F01E
F01E
783C
783C
7FFC
7FFC
1FF0
1FF0
0000
0000
0000
0000
FFFE
FFFE
FFFE
FFFE
ENDCHAR

STARTCHAR guillemotright
ENCODING 187
SWIDTH 720 0
DWIDTH 18 0
BBX 15 20 1 2
BITMAP
C180
C180
F1E0
F1E0
3870
3870
1E3C
1E3C
070E
070E
070E
070E
1E3C
1E3C
3870
3870
F1E0
F1E0
C180
C180
ENDCHAR

STARTCHAR onequarter
ENCODING 188
SWIDTH 720 0
DWIDTH 18 0
BBX 16 36 1 -6
BITMAP
3C00
3C00
7C00
7C00
BC00
BC00
3C00
3C00
3C00
3C00
3C00
3C00
3C00
3C00
7E0E
7E0E
007E
007E
03F0
03F0
1F80
1F80
FC1E
FC1E
E03E
E03E
00EE
00EE
018E
018E
03FF
03FF
000E
000E
000E
000E
ENDCHAR

STARTCHAR onehalf
ENCODING 189
SWIDTH 720 0
DWIDTH 18 0
BBX 15 36 1 -6
BITMAP
3C00
3C00
7C00
7C00
BC00
BC00
3C00
3C00
3C00
3C00
3C00
3C00
3C00
3C00
FF0E
FF0E
007E
007E
03F0
03F0
1F00
1F00
FCFC
FCFC
E18E
E18E
001E
001E
003C
003C
0070
0070
01E0
01E0
01FE
01FE
ENDCHAR

STARTCHAR threequarters
ENCODING 190
SWIDTH 720 0
DWIDTH 18 0
BBX 16 36 0 -6
BITMAP
FE00
FE00
FF80
FF80
0780
0780
7F00
7F00
0780
0780
0780
0780
FF80
FF80
FE07
FE07
003F
003F
01F8
01F8
07C0
07C0
3F1E
3F1E
3C3E
3C3E
00EE
00EE
018E
018E
03FF
03FF
000E
000E
000E
000E
ENDCHAR

STARTCHAR questiondown
ENCODING 191
SWIDTH 720 0
DWIDTH 18 0
BBX 15 30 1 -4
BITMAP
07C0
07C0
0FE0
0FE0
07C0
07C0
0000
0000
0000
0000
03C0
03C0
03C0
03C0
07C0
07C0
1F80
1F80
7E00
7E00
FC00
FC00
F81E
F81E
F83E
F83E
7FFC
7FFC
1FF0
1FF0
ENDCHAR

STARTCHAR Agrave
ENCODING 192
SWIDTH 720 0
DWIDTH 18 0
BBX 14 40 1 0
BITMAP
F800
F800
3E00
3E00
0F80
0F80
0000
0000
0000
0000
0300
0300
0FC0
0FC0
0FC0
0FC0
1FE0
1FE0
3CF0
3CF0
3870
3870
7878
7878
7878
7878
7038
7038
FFFC
FFFC
FFFC
FFFC
F03C
F03C
F03C
F03C
F03C
F03C
F03C
F03C
ENDCHAR

STARTCHAR Aacute
ENCODING 193
SWIDTH 720 0
DWIDTH 18 0
BBX 14 40 1 0
BITMAP
00F8
00F8
03E0
03E0
0F80
0F80
0000
0000
0000
0000
0300
0300
0FC0
0FC0
0FC0
0FC0
1FE0
1FE0
3CF0
3CF0
3870
3870
7878
7878
7878
7878
7038
7038
FFFC
FFFC
FFFC
FFFC
F03C
F03C
F03C
F03C
F03C
F03C
F03C
F03C
ENDCHAR

STARTCHAR Acircumflex
ENCODING 194
SWIDTH 720 0
DWIDTH 18 0
BBX 14 40 1 0
BITMAP
07C0
07C0
0FE0
0FE0
1C70
1C70
1830
1830
0000
0000
0300
0300
0FC0
0FC0
0FC0
0FC0
1FE0
1FE0
3CF0
3CF0
3870
3870
7878
7878
7878
7878
7038
7038
FFFC
FFFC
FFFC
FFFC
F03C
F03C
F03C
F03C
F03C
F03C
F03C
F03C
ENDCHAR

STARTCHAR Atilde
ENCODING 195
SWIDTH 720 0
DWIDTH 18 0
BBX 14 40 1 0
BITMAP
1E18
1E18
3F18
3F18
63F0
63F0
61E0
61E0
0000
0000
0300
0300
0FC0
0FC0
0FC0
0FC0
1FE0
1FE0
3CF0
3CF0
3870
3870
7878
7878
7878
7878
7038
7038
FFFC
FFFC
FFFC
FFFC
F03C
F03C
F03C
F03C
F03C
F03C
F03C
F03C
ENDCHAR

STARTCHAR Adieresis
ENCODING 196
SWIDTH 720 0
DWIDTH 18 0
BBX 14 40 1 0
BITMAP
7878
7878
7878
7878
7878
7878
0000
0000
0000
0000
0300
0300
0FC0
0FC0
0FC0
0FC0
1FE0
1FE0
3CF0
3CF0
3870
3870
7878
7878
7878
7878
7038
7038
FFFC
FFFC
FFFC
FFFC
F03C
F03C
F03C
F03C
F03C
F03C
F03C
F03C
ENDCHAR

STARTCHAR Aring
ENCODING 197
SWIDTH 720 0
DWIDTH 18 0
BBX 14 40 1 0
BITMAP
0780
0780
1CE0
1CE0
1CE0
1CE0
1CE0
1CE0
0780
0780
0300
0300
0FC0
0FC0
0FC0
0FC0
1FE0
1FE0
3CF0
3CF0
3870
3870
7878
7878
7878
7878
7038
7038
FFFC
FFFC
FFFC
FFFC
F03C
F03C
F03C
F03C
F03C
F03C
F03C
F03C
ENDCHAR

STARTCHAR AE
ENCODING 198
SWIDTH 720 0
DWIDTH 18 0
BBX 17 30 0 0
BITMAP
03FF80
03FF80
07FF80
07FF80
0FF000
0FF000
1CF000
1CF000
1CF000
1CF000
38F000
38F000
38FF80
38FF80
70FF80
70FF80
70F000
70F000
7FF000
7FF000
FFF000
FFF000
F0F000
F0F000
F0F000
F0F000
F0FF80
F0FF80
F0FF80
F0FF80
ENDCHAR

STARTCHAR Ccedilla
ENCODING 199
SWIDTH 720 0
DWIDTH 18 0
BBX 15 38 1 -8
BITMAP
0FEE
0FEE
3FFE
3FFE
781E
781E
701E
701E
F000
F000
F000
F000
F000
F000
F000
F000
F000
F000
F000
F000
F000
F000
7000
7000
781E
781E
3FFE
3FFE
0FF0
0FF0
01E0
01E0
0070
0070
0FF0
0FF0
07E0
07E0
ENDCHAR

STARTCHAR Egrave
ENCODING 200
SWIDTH 720 0
DWIDTH 18 0
BBX 15 40 1 0
BITMAP
7C00
7C00
1F00
1F00
07C0
07C0
0000
0000
0000
0000
FFFE
FFFE
FFFE
FFFE
F000
F000
F000
F000
F000
F000
F000
F000
FFF0
FFF0
FFF0
FFF0
F000
F000
F000
F000
F000
F000
F000
F000
F000
F000
FFFE
FFFE
FFFE
FFFE
ENDCHAR

STARTCHAR Eacute
ENCODING 201
SWIDTH 720 0
DWIDTH 18 0
BBX 15 40 1 0
BITMAP
007C
007C
01F0
01F0
07C0
07C0
0000
0000
0000
0000
FFFE
FFFE
FFFE
FFFE
F000
F000
F000
F000
F000
F000
F000
F000
FFF0
FFF0
FFF0
FFF0
F000
F000
F000
F000
F000
F000
F000
F000
F000
F000
FFFE
FFFE
FFFE
FFFE
ENDCHAR

STARTCHAR Ecircumflex
ENCODING 202
SWIDTH 720 0
DWIDTH 18 0
BBX 15 40 1 0
BITMAP
07C0
07C0
0FE0
0FE0
1C70
1C70
1830
1830
0000
0000
FFFE
FFFE
FFFE
FFFE
F000
F000
F000
F000
F000
F000
F000
F000
FFF0
FFF0
FFF0
FFF0
F000
F000
F000
F000
F000
F000
F000
F000
F000
F000
FFFE
FFFE
FFFE
FFFE
ENDCHAR

STARTCHAR Edieresis
ENCODING 203
SWIDTH 720 0
DWIDTH 18 0
BBX 15 40 1 0
BITMAP
3C3C
3C3C
3C3C
3C3C
3C3C
3C3C
0000
0000
0000
0000
FFFE
FFFE
FFFE
FFFE
F000
F000
F000
F000
F000
F000
F000
F000
FFF0
FFF0
FFF0
FFF0
F000
F000
F000
F000
F000
F000
F000
F000
F000
F000
FFFE
FFFE
FFFE
FFFE
ENDCHAR

STARTCHAR Igrave
ENCODING 204
SWIDTH 720 0
DWIDTH 18 0
BBX 14 40 1 0
BITMAP
3E00
3E00
0F80
0F80
03E0
03E0
0000
0000
0000
0000
FFFC
FFFC
FFFC
FFFC
0780
0780
0780
0780
0780
0780
0780
0780
0780
0780
0780
0780
0780
0780
0780
0780
0780
0780
0780
0780
0780
0780
FFFC
FFFC
FFFC
FFFC
ENDCHAR

STARTCHAR Iacute
ENCODING 205
SWIDTH 720 0
DWIDTH 18 0
BBX 14 40 1 0
BITMAP
00F8
00F8
03E0
03E0
0F80
0F80
0000
0000
0000
0000
FFFC
FFFC
FFFC
FFFC
0780
0780
0780
0780
0780
0780
0780
0780
0780
0780
0780
0780
0780
0780
0780
0780
0780
0780
0780
0780
0780
0780
FFFC
FFFC
FFFC
FFFC
ENDCHAR

STARTCHAR Icircumflex
ENCODING 206
SWIDTH 720 0
DWIDTH 18 0
BBX 14 40 1 0
BITMAP
07C0
07C0
0FE0
0FE0
1C70
1C70
1830
1830
0000
0000
FFFC
FFFC
FFFC
FFFC
0780
0780
0780
0780
0780
0780
0780
0780
0780
0780
0780
0780
0780
0780
0780
0780
0780
0780
0780
0780
0780
0780
FFFC
FFFC
FFFC
FFFC
ENDCHAR

STARTCHAR Idieresis
ENCODING 207
SWIDTH 720 0
DWIDTH 18 0
BBX 14 40 1 0
BITMAP
7878
7878
7878
7878
7878
7878
0000
0000
0000
0000
FFFC
FFFC
FFFC
FFFC
0780
0780
0780
0780
0780
0780
0780
0780
0780
0780
0780
0780
0780
0780
0780
0780
0780
0780
0780
0780
0780
0780
FFFC
FFFC
FFFC
FFFC
ENDCHAR

STARTCHAR Eth
ENCODING 208
SWIDTH 720 0
DWIDTH 18 0
BBX 16 30 0 0
BITMAP
7FF0
7FF0
7FFC
7FFC
783E
783E
781E
781E
781F
781F
780F
780F
FF0F
FF0F
FF0F
FF0F
780F
780F
780F
780F
781F
781F
781E
781E
783E
783E
7FFC
7FFC
7FF0
7FF0
ENDCHAR

STARTCHAR Ntilde
ENCODING 209
SWIDTH 720 0
DWIDTH 18 0
BBX 15 40 1 0
BITMAP
0F0C
0F0C
1F8C
1F8C
31F8
31F8
30F0
30F0
0000
0000
F81E
F81E
F81E
F81E
FC1E
FC1E
FE1E
FE1E
FE1E
FE1E
FF1E
FF1E
F71E
F71E
F39E
F39E
F1DE
F1DE
F1FE
F1FE
F0FE
F0FE
F07E
F07E
F07E
F07E
F03E
F03E
F03E
F03E
ENDCHAR

STARTCHAR Ograve
ENCODING 210
SWIDTH 720 0
DWIDTH 18 0
BBX 15 40 1 0
BITMAP
7C00
7C00
1F00
1F00
07C0
07C0
0000
0000
0000
0000
0FE0
0FE0
7FFC
7FFC
783C
783C
F01E
F01E
F01E
F01E
F01E
F01E
F01E
F01E
F01E
F01E
F01E
F01E
F01E
F01E
F01E
F01E
F01E
F01E
783C
783C
7FFC
7FFC
0FE0
0FE0
ENDCHAR

STARTCHAR Oacute
ENCODING 211
SWIDTH 720 0
DWIDTH 18 0
BBX 15 40 1 0
BITMAP
007C
007C
01F0
01F0
07C0
07C0
0000
0000
0000
0000
0FE0
0FE0
7FFC
7FFC
783C
783C
F01E
F01E
F01E
F01E
F01E
F01E
F01E
F01E
F01E
F01E
F01E
F01E
F01E
F01E
F01E
F01E
F01E
F01E
783C
783C
7FFC
7FFC
0FE0
0FE0
ENDCHAR

STARTCHAR Ocircumflex
ENCODING 212
SWIDTH 720 0
DWIDTH 18 0
BBX 15 40 1 0
BITMAP
07C0
07C0
0FE0
0FE0
1C70
1C70
1830
1830
0000
0000
0FE0
0FE0
7FFC
7FFC
783C
783C
F01E
F01E
F01E
F01E
F01E
F01E
F01E
F01E
F01E
F01E
F01E
F01E
F01E
F01E
F01E
F01E
F01E
F01E
783C
783C
7FFC
7FFC
0FE0
0FE0
ENDCHAR

STARTCHAR Otilde
ENCODING 213
SWIDTH 720 0
DWIDTH 18 0
BBX 15 40 1 0
BITMAP
0F0C
0F0C
1F8C
1F8C
31F8
31F8
30F0
30F0
0000
0000
0FE0
0FE0
7FFC
7FFC
783C
783C
F01E
F01E
F01E
F01E
F01E
F01E
F01E
F01E
F01E
F01E
F01E
F01E
F01E
F01E
F01E
F01E
F01E
F01E
783C
783C
7FFC
7FFC
0FE0
0FE0
ENDCHAR

STARTCHAR Odieresis
ENCODING 214
SWIDTH 720 0
DWIDTH 18 0
BBX 15 40 1 0
BITMAP
3C3C
3C3C
3C3C
3C3C
3C3C
3C3C
0000
0000
0000
0000
0FE0
0FE0
7FFC
7FFC
783C
783C
F01E
F01E
F01E
F01E
F01E
F01E
F01E
F01E
F01E
F01E
F01E
F01E
F01E
F01E
F01E
F01E
F01E
F01E
783C
783C
7FFC
7FFC
0FE0
0FE0
ENDCHAR

STARTCHAR multiply
ENCODING 215
SWIDTH 720 0
DWIDTH 18 0
BBX 15 16 1 4
BITMAP
E00E
E00E
F83E
F83E
3EF8
3EF8
07C0
07C0
0FE0
0FE0
3EF8
3EF8
F83E
F83E
E00E
E00E
ENDCHAR

STARTCHAR Oslash
ENCODING 216
SWIDTH 720 0
DWIDTH 18 0
BBX 15 34 1 -2
BITMAP
0006
0006
0FE6
0FE6
7FFC
7FFC
783C
783C
F03E
F03E
F07E
F07E
F0DE
F0DE
F19E
F19E
F39E
F39E
F31E
F31E
F61E
F61E
FC1E
FC1E
F81E
F81E
783C
783C
7FFC
7FFC
CFE0
CFE0
C000
C000
ENDCHAR

STARTCHAR Ugrave
ENCODING 217
SWIDTH 720 0
DWIDTH 18 0
BBX 15 40 1 0
BITMAP
7C00
7C00
1F00
1F00
07C0
07C0
0000
0000
0000
0000
F01E
F01E
F01E
F01E
F01E
F01E
F01E
F01E
F01E
F01E
F01E
F01E
F01E
F01E
F01E
F01E
F01E
F01E
F01E
F01E
F01E
F01E
F01E
F01E
F83E
F83E
7FFC
7FFC
1FF0
1FF0
ENDCHAR

STARTCHAR Uacute
ENCODING 218
SWIDTH 720 0
DWIDTH 18 0
BBX 15 40 1 0
BITMAP
007C
007C
01F0
01F0
07C0
07C0
0000
0000
0000
0000
F01E
F01E
F01E
F01E
F01E
F01E
F01E
F01E
F01E
F01E
F01E
F01E
F01E
F01E
F01E
F01E
F01E
F01E
F01E
F01E
F01E
F01E
F01E
F01E
F83E
F83E
7FFC
7FFC
1FF0
1FF0
ENDCHAR

STARTCHAR Ucircumflex
ENCODING 219
SWIDTH 720 0
DWIDTH 18 0
BBX 15 40 1 0
BITMAP
07C0
07C0
0FE0
0FE0
1C70
1C70
1830
1830
0000
0000
F01E
F01E
F01E
F01E
F01E
F01E
F01E
F01E
F01E
F01E
F01E
F01E
F01E
F01E
F01E
F01E
F01E
F01E
F01E
F01E
F01E
F01E
F01E
F01E
F83E
F83E
7FFC
7FFC
1FF0
1FF0
ENDCHAR

STARTCHAR Udieresis
ENCODING 220
SWIDTH 720 0
DWIDTH 18 0
BBX 15 40 1 0
BITMAP
3C3C
3C3C
3C3C
3C3C
3C3C
3C3C
0000
0000
0000
0000
F01E
F01E
F01E
F01E
F01E
F01E
F01E
F01E
F01E
F01E
F01E
F01E
F01E
F01E
F01E
F01E
F01E
F01E
F01E
F01E
F01E
F01E
F01E
F01E
F83E
F83E
7FFC
7FFC
1FF0
1FF0
ENDCHAR

STARTCHAR Yacute
ENCODING 221
SWIDTH 720 0
DWIDTH 18 0
BBX 16 40 1 0
BITMAP
00F8
00F8
03E0
03E0
0F80
0F80
0000
0000
0000
0000
F81F
F81F
F81F
F81F
781E
781E
7C3E
7C3E
3C3C
3C3C
1E78
1E78
0FF0
0FF0
07E0
07E0
03C0
03C0
03C0
03C0
03C0
03C0
03C0
03C0
03C0
03C0
03C0
03C0
03C0
03C0
ENDCHAR

STARTCHAR Thorn
ENCODING 222
SWIDTH 720 0
DWIDTH 18 0
BBX 15 30 1 0
BITMAP
F800
F800
F800
F800
F800
F800
FFF0
FFF0
FFFC
FFFC
F83E
F83E
F81E
F81E
F81E
F81E
F81E
F81E
F83E
F83E
FFFC
FFFC
FFF0
FFF0
F800
F800
F800
F800
F800
F800
ENDCHAR

STARTCHAR germandbls
ENCODING 223
SWIDTH 720 0
DWIDTH 18 0
BBX 15 30 1 0
BITMAP
1FF0
1FF0
7FFC
7FFC
783E
783E
F01E
F01E
F01E
F01E
F03C
F03C
F3F0
F3F0
F3FC
F3FC
F03E
F03E
F01E
F01E
F01E
F01E
F01E
F01E
F03E
F03E
F3FC
F3FC
F3F0
F3F0
ENDCHAR

STARTCHAR agrave
ENCODING 224
SWIDTH 720 0
DWIDTH 18 0
BBX 14 34 1 0
BITMAP
7C00
7C00
1F00
1F00
07C0
07C0
0000
0000
0000
0000
3FE0
3FE0
7FF8
7FF8
0078
0078
003C
003C
1FFC
1FFC
7FFC
7FFC
FC3C
FC3C
F83C
F83C
F83C
F83C
FC7C
FC7C
7FFC
7FFC
1FBC
1FBC
ENDCHAR

STARTCHAR aacute
ENCODING 225
SWIDTH 720 0
DWIDTH 18 0
BBX 15 34 1 0
BITMAP
003E
003E
01F8
01F8
07C0
07C0
0000
0000
0000
0000
3FE0
3FE0
7FF8
7FF8
0078
0078
003C
003C
1FFC
1FFC
7FFC
7FFC
FC3C
FC3C
F83C
F83C
F83C
F83C
FC7C
FC7C
7FFC
7FFC
1FBC
1FBC
ENDCHAR

STARTCHAR acircumflex
ENCODING 226
SWIDTH 720 0
DWIDTH 18 0
BBX 14 36 1 0
BITMAP
07C0
07C0
0FE0
0FE0
1C70
1C70
1830
1830
0000
0000
0000
0000
3FE0
3FE0
7FF8
7FF8
0078
0078
003C
003C
1FFC
1FFC
7FFC
7FFC
FC3C
FC3C
F83C
F83C
F83C
F83C
FC7C
FC7C
7FFC
7FFC
1FBC
1FBC
ENDCHAR

STARTCHAR atilde
ENCODING 227
SWIDTH 720 0
DWIDTH 18 0
BBX 14 36 1 0
BITMAP
0F0C
0F0C
1F8C
1F8C
31F8
31F8
30F0
30F0
0000
0000
0000
0000
3FE0
3FE0
7FF8
7FF8
0078
0078
003C
003C
1FFC
1FFC
7FFC
7FFC
FC3C
FC3C
F83C
F83C
F83C
F83C
FC7C
FC7C
7FFC
7FFC
1FBC
1FBC
ENDCHAR

STARTCHAR adieresis
ENCODING 228
SWIDTH 720 0
DWIDTH 18 0
BBX 14 34 1 0
BITMAP
3C3C
3C3C
3C3C
3C3C
3C3C
3C3C
0000
0000
0000
0000
3FE0
3FE0
7FF8
7FF8
0078
0078
003C
003C
1FFC
1FFC
7FFC
7FFC
FC3C
FC3C
F83C
F83C
F83C
F83C
FC7C
FC7C
7FFC
7FFC
1FBC
1FBC
ENDCHAR

STARTCHAR aring
ENCODING 229
SWIDTH 720 0
DWIDTH 18 0
BBX 14 36 1 0
BITMAP
03C0
03C0
0E70
0E70
0E70
0E70
0E70
0E70
03C0
03C0
0000
0000
3FE0
3FE0
7FF8
7FF8
0078
0078
003C
003C
1FFC
1FFC
7FFC
7FFC
FC3C
FC3C
F83C
F83C
F83C
F83C
FC7C
FC7C
7FFC
7FFC
1FBC
1FBC
ENDCHAR

STARTCHAR ae
ENCODING 230
SWIDTH 720 0
DWIDTH 18 0
BBX 17 24 0 0
BITMAP
1F3C00
1F3C00
7FFF00
7FFF00
03CF00
03CF00
01C780
01C780
01C780
01C780
1FFF80
1FFF80
7FFF80
7FFF80
F1C000
F1C000
F1C000
F1C000
F1E380
F1E380
7FFF80
7FFF80
3E7E00
3E7E00
ENDCHAR

STARTCHAR ccedilla
ENCODING 231
SWIDTH 720 0
DWIDTH 18 0
BBX 14 32 1 -8
BITMAP
1FDC
1FDC
7FFC
7FFC
787C
787C
F03C
F03C
F000
F000
F000
F000
F000
F000
F000
F000
F000
F000
783C
783C
7FFC
7FFC
1FF0
1FF0
03E0
03E0
0070
0070
0FF0
0FF0
07E0
07E0
ENDCHAR

STARTCHAR egrave
ENCODING 232
SWIDTH 720 0
DWIDTH 18 0
BBX 14 34 1 0
BITMAP
7C00
7C00
1F00
1F00
07C0
07C0
0000
0000
0000
0000
1FE0
1FE0
7FF8
7FF8
7878
7878
F03C
F03C
F03C
F03C
FFFC
FFFC
FFFC
FFFC
F000
F000
F000
F000
783C
783C
7FFC
7FFC
1FF0
1FF0
ENDCHAR

STARTCHAR eacute
ENCODING 233
SWIDTH 720 0
DWIDTH 18 0
BBX 14 34 1 0
BITMAP
007C
007C
01F0
01F0
07C0
07C0
0000
0000
0000
0000
1FE0
1FE0
7FF8
7FF8
7878
7878
F03C
F03C
F03C
F03C
FFFC
FFFC
FFFC
FFFC
F000
F000
F000
F000
783C
783C
7FFC
7FFC
1FF0
1FF0
ENDCHAR

STARTCHAR ecircumflex
ENCODING 234
SWIDTH 720 0
DWIDTH 18 0
BBX 14 36 1 0
BITMAP
07C0
07C0
0FE0
0FE0
1C70
1C70
1830
1830
0000
0000
0000
0000
1FE0
1FE0
7FF8
7FF8
7878
7878
F03C
F03C
F03C
F03C
FFFC
FFFC
FFFC
FFFC
F000
F000
F000
F000
783C
783C
7FFC
7FFC
1FF0
1FF0
ENDCHAR

STARTCHAR edieresis
ENCODING 235
SWIDTH 720 0
DWIDTH 18 0
BBX 14 34 1 0
BITMAP
3C3C
3C3C
3C3C
3C3C
3C3C
3C3C
0000
0000
0000
0000
1FE0
1FE0
7FF8
7FF8
7878
7878
F03C
F03C
F03C
F03C
FFFC
FFFC
FFFC
FFFC
F000
F000
F000
F000
783C
783C
7FFC
7FFC
1FF0
1FF0
ENDCHAR

STARTCHAR igrave
ENCODING 236
SWIDTH 720 0
DWIDTH 18 0
BBX 15 34 1 0
BITMAP
F800
F800
3E00
3E00
0F80
0F80
0000
0000
0000
0000
3FC0
3FC0
3FC0
3FC0
03C0
03C0
03C0
03C0
03C0
03C0
03C0
03C0
03C0
03C0
03C0
03C0
03C0
03C0
03C0
03C0
7FFE
7FFE
7FFE
7FFE
ENDCHAR

STARTCHAR iacute
ENCODING 237
SWIDTH 720 0
DWIDTH 18 0
BBX 14 34 2 0
BITMAP
01F0
01F0
07C0
07C0
1F00
1F00
0000
0000
0000
0000
7F80
7F80
7F80
7F80
0780
0780
0780
0780
0780
0780
0780
0780
0780
0780
0780
0780
0780
0780
0780
0780
FFFC
FFFC
FFFC
FFFC
ENDCHAR

STARTCHAR icircumflex
ENCODING 238
SWIDTH 720 0
DWIDTH 18 0
BBX 14 36 2 0
BITMAP
07C0
07C0
0FE0
0FE0
1C70
1C70
1830
1830
0000
0000
0000
0000
7F80
7F80
7F80
7F80
0780
0780
0780
0780
0780
0780
0780
0780
0780
0780
0780
0780
0780
0780
0780
0780
FFFC
FFFC
FFFC
FFFC
ENDCHAR

STARTCHAR idieresis
ENCODING 239
SWIDTH 720 0
DWIDTH 18 0
BBX 14 34 2 0
BITMAP
F0F0
F0F0
F0F0
F0F0
F0F0
F0F0
0000
0000
0000
0000
7F80
7F80
7F80
7F80
0780
0780
0780
0780
0780
0780
0780
0780
0780
0780
0780
0780
0780
0780
0780
0780
FFFC
FFFC
FFFC
FFFC
ENDCHAR

STARTCHAR eth
ENCODING 240
SWIDTH 720 0
DWIDTH 18 0
BBX 15 36 1 0
BITMAP
3800
3800
1EF0
1EF0
07C0
07C0
1F80
1F80
39E0
39E0
00F0
00F0
1FF8
1FF8
7FFC
7FFC
783C
783C
F01E
F01E
F01E
F01E
F01E
F01E
F01E
F01E
F01E
F01E
F01E
F01E
783C
783C
7FFC
7FFC
1FF0
1FF0
ENDCHAR

STARTCHAR ntilde
ENCODING 241
SWIDTH 720 0
DWIDTH 18 0
BBX 14 36 1 0
BITMAP
1E18
1E18
3F18
3F18
63F0
63F0
61E0
61E0
0000
0000
0000
0000
F3E0
F3E0
FFF8
FFF8
FC78
FC78
F83C
F83C
F03C
F03C
F03C
F03C
F03C
F03C
F03C
F03C
F03C
F03C
F03C
F03C
F03C
F03C
F03C
F03C
ENDCHAR

STARTCHAR ograve
ENCODING 242
SWIDTH 720 0
DWIDTH 18 0
BBX 14 34 1 0
BITMAP
7C00
7C00
1F00
1F00
07C0
07C0
0000
0000
0000
0000
1FE0
1FE0
7FF8
7FF8
7878
7878
F03C
F03C
F03C
F03C
F03C
F03C
F03C
F03C
F03C
F03C
F03C
F03C
7878
7878
7FF8
7FF8
1FE0
1FE0
ENDCHAR

STARTCHAR oacute
ENCODING 243
SWIDTH 720 0
DWIDTH 18 0
BBX 14 34 1 0
BITMAP
007C
007C
01F0
01F0
07C0
07C0
0000
0000
0000
0000
1FE0
1FE0
7FF8
7FF8
7878
7878
F03C
F03C
F03C
F03C
F03C
F03C
F03C
F03C
F03C
F03C
F03C
F03C
7878
7878
7FF8
7FF8
1FE0
1FE0
ENDCHAR

STARTCHAR ocircumflex
ENCODING 244
SWIDTH 720 0
DWIDTH 18 0
BBX 14 36 1 0
BITMAP
07C0
07C0
0FE0
0FE0
1C70
1C70
1830
1830
0000
0000
0000
0000
1FE0
1FE0
7FF8
7FF8
7878
7878
F03C
F03C
F03C
F03C
F03C
F03C
F03C
F03C
F03C
F03C
F03C
F03C
7878
7878
7FF8
7FF8
1FE0
1FE0
ENDCHAR

STARTCHAR otilde
ENCODING 245
SWIDTH 720 0
DWIDTH 18 0
BBX 14 36 1 0
BITMAP
1E18
1E18
3F18
3F18
63F0
63F0
61E0
61E0
0000
0000
0000
0000
1FE0
1FE0
7FF8
7FF8
7878
7878
F03C
F03C
F03C
F03C
F03C
F03C
F03C
F03C
F03C
F03C
F03C
F03C
7878
7878
7FF8
7FF8
1FE0
1FE0
ENDCHAR

STARTCHAR odieresis
ENCODING 246
SWIDTH 720 0
DWIDTH 18 0
BBX 14 34 1 0
BITMAP
3C3C
3C3C
3C3C
3C3C
3C3C
3C3C
0000
0000
0000
0000
1FE0
1FE0
7FF8
7FF8
7878
7878
F03C
F03C
F03C
F03C
F03C
F03C
F03C
F03C
F03C
F03C
F03C
F03C
7878
7878
7FF8
7FF8
1FE0
1FE0
ENDCHAR

STARTCHAR divide
ENCODING 247
SWIDTH 720 0
DWIDTH 18 0
BBX 15 24 1 0
BITMAP
0380
0380
07C0
07C0
0380
0380
0000
0000
0000
0000
FFFE
FFFE
FFFE
FFFE
0000
0000
0000
0000
0380
0380
07C0
07C0
0380
0380
ENDCHAR

STARTCHAR oslash
ENCODING 248
SWIDTH 720 0
DWIDTH 18 0
BBX 14 28 1 -2
BITMAP
000C
000C
1FEC
1FEC
7FF8
7FF8
7878
7878
F0FC
F0FC
F1BC
F1BC
F33C
F33C
F23C
F23C
F63C
F63C
FC3C
FC3C
7878
7878
7FF8
7FF8
DFE0
DFE0
C000
C000
ENDCHAR

STARTCHAR ugrave
ENCODING 249
SWIDTH 720 0
DWIDTH 18 0
BBX 14 34 1 0
BITMAP
7C00
7C00
1F00
1F00
07C0
07C0
0000
0000
0000
0000
F03C
F03C
F03C
F03C
F03C
F03C
F03C
F03C
F03C
F03C
F03C
F03C
F03C
F03C
F03C
F03C
F03C
F03C
787C
787C
7FFC
7FFC
0FBC
0FBC
ENDCHAR

STARTCHAR uacute
ENCODING 250
SWIDTH 720 0
DWIDTH 18 0
BBX 14 34 1 0
BITMAP
007C
007C
01F0
01F0
07C0
07C0
0000
0000
0000
0000
F03C
F03C
F03C
F03C
F03C
F03C
F03C
F03C
F03C
F03C
F03C
F03C
F03C
F03C
F03C
F03C
F03C
F03C
787C
787C
7FFC
7FFC
0FBC
0FBC
ENDCHAR

STARTCHAR ucircumflex
ENCODING 251
SWIDTH 720 0
DWIDTH 18 0
BBX 14 36 1 0
BITMAP
07C0
07C0
0FE0
0FE0
1C70
1C70
1830
1830
0000
0000
0000
0000
F03C
F03C
F03C
F03C
F03C
F03C
F03C
F03C
F03C
F03C
F03C
F03C
F03C
F03C
F03C
F03C
F03C
F03C
787C
787C
7FFC
7FFC
0FBC
0FBC
ENDCHAR

STARTCHAR udieresis
ENCODING 252
SWIDTH 720 0
DWIDTH 18 0
BBX 14 34 1 0
BITMAP
7878
7878
7878
7878
7878
7878
0000
0000
0000
0000
F03C
F03C
F03C
F03C
F03C
F03C
F03C
F03C
F03C
F03C
F03C
F03C
F03C
F03C
F03C
F03C
F03C
F03C
787C
787C
7FFC
7FFC
0FBC
0FBC
ENDCHAR

STARTCHAR yacute
ENCODING 253
SWIDTH 720 0
DWIDTH 18 0
BBX 15 44 1 -10
BITMAP
00F8
00F8
03E0
03E0
0F80
0F80
0000
0000
0000
0000
F83E
F83E
F83E
F83E
783C
783C
7C7C
7C7C
3C78
3C78
3C70
3C70
1C70
1C70
0EE0
0EE0
0EE0
0EE0
0FE0
0FE0
07C0
07C0
07C0
07C0
0780
0780
0780
0780
0F00
0F00
0F00
0F00
0F00
0F00
ENDCHAR

STARTCHAR thorn
ENCODING 254
SWIDTH 720 0
DWIDTH 18 0
BBX 14 38 1 -10
BITMAP
F000
F000
F000
F000
F7E0
F7E0
FFF8
FFF8
F878
F878
F03C
F03C
F03C
F03C
F03C
F03C
F03C
F03C
F03C
F03C
F03C
F03C
F878
F878
FFF8
FFF8
F7E0
F7E0
F000
F000
F000
F000
F000
F000
F000
F000
F000
F000
ENDCHAR

STARTCHAR ydieresis
ENCODING 255
SWIDTH 720 0
DWIDTH 18 0
BBX 15 44 1 -10
BITMAP
3C3C
3C3C
3C3C
3C3C
3C3C
3C3C
0000
0000
0000
0000
F83E
F83E
F83E
F83E
783C
783C
7C7C
7C7C
3C78
3C78
3C70
3C70
1C70
1C70
0EE0
0EE0
0EE0
0EE0
0FE0
0FE0
07C0
07C0
07C0
07C0
0780
0780
0780
0780
0F00
0F00
0F00
0F00
0F00
0F00
ENDCHAR
ENDFONT
